<svg width="1725" height="720" viewBox="0 0 1725 720" fill="none" xmlns="http://www.w3.org/2000/svg">
<path d="M187 432.868L229 394.868V640.868L187 611.868V432.868Z" fill="#FBFBFB"/>
<path d="M54 432.868L12 394.868V640.868L54 611.868V432.868Z" fill="#FBFBFB"/>
<path d="M71.0127 387.89L38.5 386.867C38 386.867 27 386.367 25.2827 385.22C20.5 383.367 15.7394 381.374 11.4927 378.36C8.30272 376.09 4.39271 372.14 0.702709 369.2C0.269376 368.854 0.0393732 368.957 0.0127066 369.51C-0.0739601 371.37 0.282714 373.28 1.08271 375.24C8.03605 392.414 15.8327 408.58 24.4727 423.74C43.2727 456.73 62.6427 489.38 81.4727 522.34C93.6927 543.734 106.249 565.02 119.143 586.2C119.18 586.262 119.233 586.314 119.296 586.35C119.359 586.385 119.43 586.404 119.503 586.404C119.575 586.404 119.646 586.385 119.71 586.35C119.773 586.314 119.825 586.262 119.863 586.2C127.043 574.68 133.963 563.37 140.753 551.2C151.643 531.67 162.243 511.93 173.553 492.65C186.306 470.93 198.976 449.167 211.563 427.36C217.709 416.72 223.523 405.904 229.003 394.91C232.823 387.27 235.603 378.5 238.963 370.27C239 370.175 239.012 370.073 238.999 369.972C238.986 369.871 238.948 369.775 238.888 369.692C238.829 369.61 238.749 369.543 238.658 369.499C238.566 369.455 238.464 369.435 238.363 369.44C238.003 369.467 237.599 369.64 237.153 369.96C232.643 373.25 228.133 377.37 223.893 380.08C220.543 382.22 217 384.868 213 385.406L211 385.868C211 385.868 207.5 386.868 207 386.867C206.5 386.867 200 386.867 200 386.867C200 386.867 179.897 388.713 170 385.406C153.87 426.926 143.173 452.21 126.343 494.39C124.983 497.804 123.366 502.584 121.493 508.73C121.226 509.61 120.713 510.6 119.953 511.7C119.852 511.847 119.715 511.967 119.554 512.047C119.393 512.127 119.214 512.166 119.033 512.16C117.753 512.107 116.866 511.224 116.373 509.51C115.283 505.73 114.293 501.88 112.863 498.22C91.6027 443.82 77.6527 407.044 71.0127 387.89Z" fill="#FBFBFB"/>
<path d="M345.2 429.88C345.2 428.147 344.333 427.28 342.6 427.28H311.4C309.667 427.28 308.8 428.147 308.8 429.88V592.12C308.8 593.853 309.667 594.72 311.4 594.72H342.6C344.333 594.72 345.2 594.027 345.2 592.64V429.88ZM259.4 594.72V427.28C259.4 412.72 263.907 401.107 272.92 392.44C281.933 383.427 293.72 378.92 308.28 378.92H345.72C360.28 378.92 372.067 383.427 381.08 392.44C390.093 401.107 394.6 412.72 394.6 427.28V594.72C394.6 609.28 390.093 621.067 381.08 630.08C372.067 638.747 360.28 643.08 345.72 643.08H308.28C293.72 643.08 281.933 638.747 272.92 630.08C263.907 621.067 259.4 609.28 259.4 594.72ZM415.42 381H461.18L490.3 548.96L519.42 381H565.18L515.26 641H465.34L415.42 381ZM588.442 594.72V427.28C588.442 412.72 592.949 401.107 601.962 392.44C610.976 383.427 622.762 378.92 637.322 378.92H669.562C684.122 378.92 695.909 383.427 704.922 392.44C713.936 401.107 718.442 412.72 718.442 427.28V491.24H669.042V429.88C669.042 428.147 668.176 427.28 666.442 427.28H640.442C638.709 427.28 637.842 428.147 637.842 429.88V491.24H718.442V539.6H637.842V592.12C637.842 593.853 638.709 594.72 640.442 594.72H666.442C668.176 594.72 669.042 594.027 669.042 592.64V564.04H718.442V594.72C718.442 609.28 713.936 621.067 704.922 630.08C695.909 638.747 684.122 643.08 669.562 643.08H637.322C622.762 643.08 610.976 638.747 601.962 630.08C592.949 621.067 588.442 609.28 588.442 594.72Z" fill="#FBFBFB"/>
<path d="M1001.4 594.72V427.28C1001.4 412.72 1005.91 401.107 1014.92 392.44C1023.93 383.427 1035.72 378.92 1050.28 378.92H1082.52C1097.08 378.92 1108.87 383.427 1117.88 392.44C1126.89 401.107 1131.4 412.72 1131.4 427.28V491.24H1082V429.88C1082 428.147 1081.13 427.28 1079.4 427.28H1053.4C1051.67 427.28 1050.8 428.147 1050.8 429.88V491.24H1131.4V539.6H1050.8V592.12C1050.8 593.853 1051.67 594.72 1053.4 594.72H1079.4C1081.13 594.72 1082 594.027 1082 592.64V564.04H1131.4V594.72C1131.4 609.28 1126.89 621.067 1117.88 630.08C1108.87 638.747 1097.08 643.08 1082.52 643.08H1050.28C1035.72 643.08 1023.93 638.747 1014.92 630.08C1005.91 621.067 1001.4 609.28 1001.4 594.72ZM1169.9 641V429.36H1157.42L1162.62 381H1219.3V401.28L1232.3 381H1246.34C1262.29 381 1274.94 385.507 1284.3 394.52C1294.01 403.533 1298.86 415.147 1298.86 429.36V592.64H1311.86L1306.66 641H1249.46V431.96C1249.46 430.227 1248.59 429.36 1246.86 429.36H1219.3V641H1169.9ZM1423.58 592.64V641H1393.42C1378.86 641 1367.08 636.667 1358.06 628C1349.05 618.987 1344.54 607.2 1344.54 592.64V429.36H1322.7L1326.86 381H1344.54V325.36H1331.54L1335.7 277H1393.94V381H1423.58L1419.42 429.36H1393.94V592.64H1423.58ZM1532.78 429.88C1532.78 428.147 1531.91 427.28 1530.18 427.28H1498.98C1497.24 427.28 1496.38 428.147 1496.38 429.88V592.12C1496.38 593.853 1497.24 594.72 1498.98 594.72H1530.18C1531.91 594.72 1532.78 594.027 1532.78 592.64V429.88ZM1446.98 594.72V427.28C1446.98 412.72 1451.48 401.107 1460.5 392.44C1469.51 383.427 1481.3 378.92 1495.86 378.92H1533.3C1547.86 378.92 1559.64 383.427 1568.66 392.44C1577.67 401.107 1582.18 412.72 1582.18 427.28V594.72C1582.18 609.28 1577.67 621.067 1568.66 630.08C1559.64 638.747 1547.86 643.08 1533.3 643.08H1495.86C1481.3 643.08 1469.51 638.747 1460.5 630.08C1451.48 621.067 1446.98 609.28 1446.98 594.72ZM1669.95 381V403.88L1683.99 381H1718.83V431.44H1669.95V641H1620.55V429.36H1608.07L1613.27 381H1669.95Z" fill="#FBFBFB"/>
<path d="M1179.16 219.242C1178.53 222.513 1176.88 224.098 1174.21 223.995C1162.3 223.547 1150.47 223.522 1138.73 223.919C1138.64 223.921 1138.55 223.902 1138.47 223.862C1138.39 223.823 1138.32 223.764 1138.26 223.69C1138.2 223.615 1138.16 223.528 1138.14 223.433C1138.11 223.338 1138.11 223.238 1138.12 223.141C1139.24 215.592 1140.57 208.066 1142.1 200.563C1143.22 195.076 1144.09 189.842 1144.7 184.861C1145.66 177.034 1146.94 169.053 1147.49 161.495C1149.89 128.894 1149.9 96.2769 1147.52 63.6438C1146.02 42.9064 1143.11 22.3482 1138.81 1.96937C1138.76 1.73121 1138.76 1.48294 1138.81 1.24388C1138.85 1.00483 1138.95 0.781405 1139.09 0.590963C1139.22 0.400522 1139.4 0.248187 1139.59 0.145806C1139.79 0.0434241 1140.01 -0.00625336 1140.22 0.000628965C1151.31 0.336755 1162.36 -0.076197 1173.46 0.04865C1175.96 0.0774608 1177.91 -0.239467 1178.62 3.1314C1190.33 58.6019 1193.09 114.661 1186.9 171.31C1185.59 183.302 1183.01 199.279 1179.16 219.242Z" fill="#F74AB5"/>
<path d="M537.713 219.494C534.268 201.866 531.658 186.032 529.882 171.992C529.121 165.981 528.583 159.611 528.269 152.883C527.132 128.526 527.127 104.169 528.252 79.8118C528.544 73.4999 529.07 67.1207 529.832 60.6742C532.134 41.1713 534.814 21.7165 538.948 2.63651C539.056 2.13092 539.309 1.68083 539.666 1.35715C540.024 1.03347 540.465 0.854586 540.922 0.848648L577.94 0.550677C578.003 0.548923 578.066 0.563737 578.123 0.594002C578.18 0.624268 578.231 0.669197 578.271 0.725505C578.312 0.781814 578.341 0.848053 578.356 0.919284C578.371 0.990515 578.373 1.06494 578.36 1.13703C576.814 9.7174 575.28 18.3298 573.756 26.9743C566.64 67.3642 565.438 109.004 567.909 150.259C568.228 155.59 568.74 161.156 569.446 166.955C570.124 172.511 570.841 178.054 571.597 183.584C573.49 197.367 575.787 209.248 578.486 219.225C579.007 221.141 579.315 222.711 579.41 223.935C579.416 224.014 579.408 224.094 579.385 224.169C579.362 224.244 579.326 224.313 579.278 224.371C579.231 224.429 579.173 224.475 579.109 224.506C579.045 224.537 578.976 224.552 578.906 224.55C566.713 224.224 554.533 224.054 542.367 224.041C539.082 224.031 538.377 222.897 537.713 219.494Z" fill="#F74AB5"/>
<path d="M1093.09 81.3146C1092.61 81.5735 1092.33 81.9998 1092.27 82.5935C1091.93 85.8144 1090.98 93.1942 1087.04 93.6869C1085.26 93.9142 1083.32 93.9679 1081.23 93.8479C1080.28 93.7974 1079.79 93.2511 1079.75 92.209C1079.64 89.1964 1079.76 86.0418 1080.12 82.7451C1081.68 68.3076 1082.48 53.8416 1084.35 39.4231C1085.12 33.4169 1085.82 27.4266 1086.44 21.452C1086.49 20.9829 1086.69 20.5486 1087 20.226C1087.32 19.9035 1087.73 19.7136 1088.16 19.6899C1101.42 19.0079 1114.77 18.9573 1128.2 19.5384C1130.93 19.652 1131.4 20.713 1131.88 23.394C1134.31 37.1494 1136.91 51.2175 1138.01 64.935C1140.07 90.3617 1140.25 115.804 1138.58 141.262C1137.59 156.297 1135.3 170.346 1132.52 185.513C1132.12 187.736 1131.73 189.473 1131.38 190.723C1131.33 190.875 1131.26 191.015 1131.16 191.134C1131.07 191.253 1130.95 191.349 1130.81 191.415C1129.74 191.926 1128.61 192.166 1127.42 192.135C1114.34 191.768 1101.55 191.715 1089.03 191.974C1087.97 191.999 1087.55 191.443 1087.76 190.306C1090.34 176.56 1092.94 162.701 1094.3 149.116C1096.25 129.664 1097.06 110.139 1096.73 90.5417C1096.68 87.3207 1096.96 84.9713 1095.92 81.7977C1095.55 80.6672 1094.61 80.5062 1093.09 81.3146Z" fill="#F74AB5"/>
<path d="M620.954 78.8299C620.815 78.8695 620.69 78.9538 620.593 79.0723C620.497 79.1908 620.435 79.3381 620.414 79.4958C617.842 98.9962 618.648 119.962 620.174 139.519C620.626 145.315 621.366 151.6 622.394 158.373C624.023 169.071 625.886 179.795 627.984 190.544C628.018 190.718 628.017 190.898 627.981 191.072C627.944 191.246 627.873 191.408 627.773 191.548C627.673 191.687 627.546 191.8 627.402 191.878C627.257 191.956 627.099 191.997 626.938 191.999L586.715 192.313C585.669 192.319 584.981 191.771 584.649 190.667C582.883 184.76 582.429 178.606 581.246 172.441C580.463 168.377 579.914 164.844 579.6 161.845C578.606 152.237 577.157 142.506 576.891 133.089C576.445 117.622 576.405 102.151 576.771 86.6777C577.02 75.9477 578.434 65.2938 579.694 54.5638C580.38 48.6756 581.88 41.7411 582.6 35.2156C583.209 29.7554 583.929 25.8173 585.267 21.1752C585.413 20.6676 585.701 20.225 586.09 19.9119C586.478 19.5987 586.947 19.4315 587.427 19.4345C590.676 19.4725 593.968 19.7103 597.165 19.5866C607.258 19.2125 617.271 19.222 627.204 19.6152C627.573 19.6314 627.928 19.7833 628.21 20.0469C628.493 20.3105 628.688 20.6708 628.764 21.0706C630.916 32.1526 631.927 43.577 633.144 55.0394C634.293 65.9216 634.996 79.5624 636.505 91.7858C636.542 92.077 636.524 92.3736 636.452 92.6565C636.379 92.9394 636.254 93.2023 636.085 93.4282C635.915 93.6541 635.705 93.838 635.467 93.968C635.229 94.098 634.969 94.1713 634.705 94.183C632.167 94.2876 627.829 95.3815 626.732 91.7763C625.503 87.7557 624.103 83.8049 622.532 79.9239C622.16 78.998 621.634 78.6333 620.954 78.8299Z" fill="#F74AB5"/>
<path d="M1233.17 68.5739C1236.45 96.9453 1236.68 125.824 1233.87 155.21C1232.86 165.873 1230.87 177.184 1229.07 188.063C1228.91 188.999 1228.48 189.843 1227.84 190.447C1227.2 191.051 1226.4 191.377 1225.58 191.369L1196.44 191.088C1195.21 191.081 1194.67 190.371 1194.82 188.955C1196.34 174.826 1197.62 160.912 1198.67 147.215C1200.25 126.613 1200.02 105.814 1198.51 85.2115C1197.4 70.077 1195.99 54.8391 1193.83 39.6106C1193.81 39.4546 1193.81 39.2946 1193.85 39.1423C1193.89 38.9901 1193.95 38.8493 1194.04 38.7304C1194.13 38.6116 1194.25 38.5175 1194.37 38.4553C1194.5 38.393 1194.63 38.364 1194.77 38.3705C1204.93 38.7964 1215.08 38.8935 1225.23 38.6617C1226.46 38.6304 1227.48 38.931 1228.28 39.5636C1228.5 39.7387 1228.66 40.0079 1228.72 40.3152C1230.82 51.67 1232.3 61.0896 1233.17 68.5739Z" fill="#F74AB5"/>
<path d="M488.283 188.965C486.227 178.313 484.766 167.548 483.899 156.67C483.008 145.579 481.511 129.978 482.157 115.506C482.73 102.789 483.313 90.0755 483.907 77.3648C484.011 75.0611 484.439 71.5178 485.191 66.7348C486.598 57.8467 487.056 48.6291 488.986 39.6186C489.047 39.334 489.188 39.0809 489.388 38.9C489.589 38.719 489.836 38.6207 490.09 38.6206L523.605 38.6771C523.66 38.6766 523.715 38.6898 523.766 38.7158C523.816 38.7418 523.861 38.78 523.898 38.828C523.935 38.876 523.963 38.9326 523.981 38.9942C523.998 39.0558 524.004 39.121 523.998 39.1855C522.837 50.1199 521.664 61.0448 520.481 71.9604C517.741 97.2312 516.752 123.255 518.739 148.648C519.808 162.232 521.163 175.881 522.804 189.596C522.833 189.852 522.814 190.113 522.748 190.36C522.682 190.607 522.57 190.834 522.42 191.027C522.27 191.219 522.085 191.372 521.879 191.474C521.673 191.577 521.45 191.626 521.225 191.62C511.231 191.287 501.101 191.225 490.835 191.432C489.191 191.46 488.618 190.688 488.283 188.965Z" fill="#F74AB5"/>
<path d="M753.262 321.741L754.372 320.041C754.546 319.774 754.592 319.484 754.512 319.171L746.862 289.821C746.342 287.814 746.809 287.551 748.262 289.031C757.552 298.501 766.052 308.991 774.892 318.911C781.239 326.044 787.052 335.074 792.332 346.001C797.726 357.167 803.646 372.064 810.092 390.691C816.732 409.844 830.682 446.621 851.942 501.021C853.372 504.681 854.362 508.531 855.452 512.311C855.946 514.024 856.832 514.907 858.112 514.961C858.293 514.967 858.473 514.928 858.633 514.847C858.794 514.767 858.931 514.648 859.032 514.501C859.792 513.401 860.306 512.411 860.572 511.531C862.446 505.384 864.062 500.604 865.422 497.191C882.252 455.011 897.052 413.881 913.182 372.361C917.496 361.261 919.936 355.057 920.502 353.751C927.929 336.657 938.206 321.431 951.332 308.071C956.342 302.971 961.112 297.811 964.092 293.081C965.212 291.301 966.562 290.137 968.142 289.591C968.849 289.344 969.129 289.587 968.982 290.321C967.056 299.874 965.239 309.027 963.532 317.781C963.266 319.161 963.206 320.264 963.352 321.091C963.367 321.178 963.404 321.26 963.459 321.33C963.514 321.4 963.585 321.455 963.667 321.489C963.748 321.524 963.837 321.538 963.926 321.53C964.014 321.521 964.099 321.49 964.172 321.441C967.512 319.181 969.992 311.751 971.242 307.991C973.856 300.117 976.496 292.251 979.162 284.391C981.402 277.801 984.252 271.851 987.252 265.701C987.36 265.479 987.409 265.234 987.395 264.988C987.381 264.742 987.304 264.504 987.172 264.296C987.039 264.089 986.856 263.918 986.639 263.802C986.422 263.685 986.178 263.626 985.932 263.631C984.379 263.657 982.909 264.201 981.522 265.261C973.269 271.554 965.639 278.367 958.632 285.701C958.532 285.804 958.402 285.873 958.26 285.899C958.118 285.924 957.972 285.905 957.842 285.843C957.712 285.781 957.604 285.68 957.534 285.554C957.465 285.428 957.436 285.284 957.452 285.141C958.239 278.727 959.066 272.531 959.932 266.551C961.339 256.891 963.699 247.471 967.012 238.291C972.942 221.911 982.892 211.801 995.892 199.891C1007.89 188.901 1015.9 178.271 1014.56 161.231C1013.74 150.881 1003.27 151.591 995.742 150.651C990.212 149.961 988.152 142.401 987.322 137.011C985.542 125.457 985.626 114.374 987.572 103.761C988.762 97.2307 993.872 95.5107 999.762 95.5707C1010.52 95.684 1021.27 95.7373 1032.01 95.7307C1035.49 95.7307 1038.4 96.2407 1040.75 97.2607C1043.83 98.6007 1042.8 104.441 1041.46 106.291C1039.9 108.441 1039.06 108.741 1039.06 111.651C1039.06 114.541 1039.15 119.991 1037.1 122.481C1034.87 125.171 1028.85 125.331 1025.56 125.031C1025.09 124.99 1024.66 124.781 1024.33 124.443C1024.01 124.105 1023.81 123.66 1023.79 123.191L1023.14 110.341C1023.13 110.075 1023.05 109.818 1022.9 109.595C1022.76 109.372 1022.56 109.191 1022.32 109.071C1022.08 108.951 1021.82 108.896 1021.55 108.912C1021.29 108.927 1021.03 109.013 1020.81 109.161L1020.46 109.401C1020.11 109.638 1019.81 109.952 1019.58 110.318C1019.36 110.685 1019.23 111.095 1019.18 111.521L1017.92 124.171C1017.91 124.362 1017.83 124.544 1017.7 124.688C1017.57 124.832 1017.4 124.931 1017.21 124.971C1014.6 125.544 1011.98 125.641 1009.36 125.261C1008.93 125.197 1008.53 124.982 1008.23 124.653C1007.94 124.323 1007.77 123.901 1007.76 123.461L1007.42 111.251C1007.41 110.678 1007.17 110.133 1006.77 109.724C1006.37 109.316 1005.82 109.076 1005.25 109.051L1004.01 109.001C1002.78 108.954 1002.19 109.551 1002.25 110.791C1002.61 118.144 1002.05 125.434 1000.57 132.661C1000.51 132.969 1000.53 133.288 1000.64 133.583C1000.75 133.879 1000.94 134.138 1001.18 134.332C1001.43 134.526 1001.73 134.648 1002.04 134.683C1002.36 134.718 1002.68 134.665 1002.96 134.531C1005.06 133.537 1007.24 132.887 1009.51 132.581C1009.81 132.534 1010.08 132.591 1010.33 132.751L1013.8 134.951C1014.12 135.151 1014.46 135.164 1014.8 134.991C1018.01 133.361 1021.34 129.571 1024.9 132.561C1027.73 134.934 1030.86 135.021 1034.28 132.821C1038.9 129.867 1043.85 128.724 1049.15 129.391C1049.52 129.437 1049.75 129.281 1049.83 128.921C1050.23 127.361 1050.05 125.841 1049.3 124.361C1049.19 124.141 1049.02 123.977 1048.79 123.871L1044.65 121.891C1044.51 121.825 1044.39 121.72 1044.31 121.589C1044.23 121.457 1044.19 121.305 1044.19 121.151L1044.34 108.781C1044.35 108.367 1044.56 108.157 1044.97 108.151L1085.15 107.901C1086.67 107.887 1087.39 108.641 1087.29 110.161L1085.93 132.521C1085.91 132.899 1085.75 133.255 1085.49 133.528C1085.23 133.8 1084.88 133.971 1084.5 134.011C1074.78 135.004 1065.05 135.257 1055.29 134.771C1053.91 134.704 1053.21 135.361 1053.17 136.741C1052.51 167.061 1048.29 196.984 1040.51 226.511C1038.63 233.637 1036.38 240.637 1033.76 247.511C1028.63 260.951 1020.86 273.231 1012.49 285.011C1006.15 293.941 1001.09 299.711 1001.1 309.441C1001.12 326.001 995.906 340.224 985.472 352.111C983.426 354.437 978.486 358.897 970.652 365.491C964.439 370.717 958.369 376.117 952.442 381.691C951.042 383.011 949.932 384.457 949.112 386.031C948.983 386.28 948.92 386.559 948.93 386.839C948.941 387.12 949.023 387.394 949.17 387.633C949.317 387.872 949.523 388.07 949.769 388.206C950.015 388.342 950.291 388.413 950.572 388.411C954.512 388.401 959.622 385.021 962.972 382.881C967.212 380.171 971.722 376.051 976.232 372.761C976.679 372.441 977.082 372.267 977.442 372.241C977.544 372.235 977.645 372.256 977.737 372.3C977.829 372.344 977.908 372.41 977.968 372.492C978.028 372.575 978.066 372.671 978.079 372.772C978.092 372.873 978.079 372.976 978.042 373.071C974.682 381.301 971.902 390.071 968.082 397.711C962.602 408.704 956.789 419.521 950.642 430.161C938.056 451.967 925.386 473.731 912.632 495.451C901.322 514.731 890.722 534.471 879.832 554.001C873.042 566.171 866.122 577.481 858.942 589.001C858.905 589.063 858.852 589.114 858.789 589.15C858.726 589.186 858.655 589.204 858.582 589.204C858.51 589.204 858.439 589.186 858.375 589.15C858.312 589.114 858.26 589.063 858.222 589.001C845.329 567.821 832.772 546.534 820.552 525.141C801.722 492.181 782.352 459.531 763.552 426.541C754.912 411.381 747.116 395.214 740.162 378.041C739.362 376.081 739.006 374.171 739.092 372.311C739.119 371.757 739.349 371.654 739.782 372.001C743.472 374.941 747.382 378.891 750.572 381.161C754.819 384.174 759.416 386.461 764.362 388.021C764.622 388.103 764.899 388.117 765.166 388.061C765.434 388.006 765.682 387.883 765.889 387.705C766.095 387.527 766.252 387.299 766.346 387.042C766.439 386.786 766.466 386.51 766.422 386.241C765.682 381.781 754.982 373.461 751.332 370.711C746.932 367.391 742.662 363.907 738.522 360.261C725.392 348.691 716.232 332.281 716.182 314.541C716.172 309.471 716.992 304.081 713.942 299.261C706.542 287.571 696.152 274.591 690.462 265.191C683.956 254.431 679.162 242.867 676.082 230.501C672.772 217.211 669.682 203.901 667.762 190.381C665.796 176.534 664.296 162.634 663.262 148.681C662.952 144.491 662.962 140.201 662.972 136.041C662.972 135.608 662.802 135.193 662.497 134.884C662.192 134.576 661.777 134.399 661.342 134.391C651.796 134.264 642.769 134.294 634.262 134.481C633.096 134.507 631.976 134.331 630.902 133.951C630.496 133.811 630.266 133.527 630.212 133.101C629.252 125.627 628.969 118.124 629.362 110.591C629.371 110.402 629.433 110.219 629.541 110.063C629.649 109.908 629.798 109.785 629.972 109.711C631.799 108.931 634.062 108.537 636.762 108.531C647.096 108.491 657.432 108.394 667.772 108.241C669.392 108.221 670.042 110.411 670.562 111.291C672.216 114.071 672.699 117.064 672.012 120.271C671.948 120.6 671.767 120.895 671.502 121.101L666.832 124.861C666.388 125.221 666.092 125.73 666.002 126.291C665.672 128.451 667.462 129.081 669.242 129.071C673.416 129.064 677.312 130.411 680.932 133.111C684.032 135.421 689.602 133.141 694.212 131.601C694.558 131.49 694.924 131.483 695.262 131.581C696.689 131.981 697.909 132.757 698.922 133.911C699.358 134.408 699.963 134.725 700.62 134.799C701.276 134.873 701.937 134.699 702.472 134.311C705.032 132.464 707.712 132.371 710.512 134.031C712.162 135.011 713.622 135.701 714.882 134.011C714.976 133.882 715.041 133.735 715.072 133.58C715.103 133.424 715.1 133.264 715.062 133.111C713.062 124.841 714.712 117.721 713.292 110.001C713.112 108.987 712.506 108.464 711.472 108.431C709.942 108.391 709.342 108.981 709.292 110.521C709.099 115.954 708.859 119.701 708.572 121.761C708.012 125.761 701.612 125.041 698.902 124.151C698.742 124.097 698.601 123.999 698.496 123.867C698.391 123.736 698.327 123.577 698.312 123.411L697.292 111.961C697.166 110.534 696.386 109.814 694.952 109.801H694.462C694.053 109.798 693.658 109.955 693.363 110.239C693.068 110.523 692.895 110.911 692.882 111.321L692.552 121.621C692.466 124.321 691.082 125.474 688.402 125.081L678.932 123.681C678.322 123.591 677.768 123.271 677.387 122.787C677.006 122.304 676.825 121.693 676.882 121.081C677.296 116.661 676.389 112.471 674.162 108.511C672.182 104.991 673.132 100.561 674.322 96.9607C674.436 96.6273 674.652 96.384 674.972 96.2307C675.952 95.7707 677.132 95.5373 678.512 95.5307C691.846 95.484 705.176 95.3773 718.502 95.2107C721.822 95.164 724.356 96.484 726.102 99.1707C727.792 101.781 728.872 104.131 729.132 107.391C730.079 119.037 729.892 129.741 728.572 139.501C728.052 143.354 726.356 146.284 723.482 148.291C719.472 151.091 711.222 151.811 705.722 152.881C701.342 153.731 700.132 163.151 700.282 166.281C700.672 174.681 705.382 184.731 711.602 190.931C719.242 198.551 730.992 208.551 737.652 216.851C743.339 223.951 747.629 231.591 750.522 239.771C755.702 254.411 756.872 266.741 759.022 280.781C759.196 281.901 759.276 282.764 759.262 283.371C759.255 283.635 759.172 283.892 759.022 284.11C758.872 284.328 758.663 284.498 758.418 284.6C758.174 284.701 757.906 284.73 757.646 284.682C757.385 284.634 757.145 284.512 756.952 284.331C749.472 277.317 741.866 270.767 734.132 264.681C733.019 263.801 732.002 263.331 731.082 263.271C730.823 263.253 730.565 263.305 730.332 263.42C730.1 263.535 729.902 263.71 729.758 263.926C729.615 264.142 729.532 264.393 729.517 264.652C729.502 264.911 729.555 265.169 729.672 265.401C733.052 272.111 736.032 278.401 738.182 285.831C739.549 290.564 740.922 295.301 742.302 300.041C744.409 307.267 747.962 314.504 752.962 321.751C753.062 321.897 753.162 321.894 753.262 321.741Z" fill="#FBFBFB"/>
<path d="M974.442 106.661H743.262C742.296 106.661 741.512 107.444 741.512 108.411V130.911C741.512 131.877 742.296 132.661 743.262 132.661H974.442C975.409 132.661 976.192 131.877 976.192 130.911V108.411C976.192 107.444 975.409 106.661 974.442 106.661Z" fill="#FBFBFB"/>
<path d="M838.952 312.111C822.802 306.391 810.442 295.731 806.522 278.861C805.262 273.441 805.109 266.847 806.062 259.081C808.372 240.321 813.042 223.091 830.532 212.811C851.312 200.611 886.762 204.001 901.012 225.231C907.752 235.281 909.112 248.251 910.792 259.771C913.319 277.071 908.832 290.947 897.332 301.401C881.632 315.661 858.902 319.181 838.952 312.111Z" fill="#FBFBFB"/>
<path d="M903.602 359.341C898.622 370.811 891.852 388.321 886.362 403.161C878.976 423.121 871.636 443.097 864.342 463.091C862.942 466.911 861.272 473.001 859.112 477.871C859 478.128 858.792 478.331 858.533 478.437C858.273 478.543 857.983 478.545 857.722 478.441C857.089 478.181 856.592 477.544 856.232 476.531C850.672 460.541 845.282 444.351 839.292 428.611C832.006 409.491 824.619 390.407 817.132 371.361C812.532 359.661 810.082 353.461 809.782 352.761C804.356 340.054 797.512 327.967 789.252 316.501C787.246 313.714 785.622 310.587 784.382 307.121C783.592 304.921 784.782 303.751 787.012 304.301C789.442 304.901 791.642 305.701 793.922 307.061C803.569 312.814 813.619 317.687 824.072 321.681C844.012 329.291 863.652 330.551 884.262 324.021C898.312 319.571 911.252 312.181 924.392 305.611C927.192 304.211 930.086 303.384 933.072 303.131C933.357 303.105 933.644 303.155 933.903 303.275C934.162 303.396 934.385 303.583 934.549 303.818C934.712 304.052 934.811 304.326 934.834 304.611C934.858 304.896 934.805 305.183 934.682 305.441C934.189 306.467 933.602 307.471 932.922 308.451C927.509 316.237 922.226 324.114 917.072 332.081C913.719 337.267 909.229 346.354 903.602 359.341Z" fill="#F74AB5"/>
<path d="M926.012 433.271L968.012 395.271V641.271L926.012 612.271V433.271Z" fill="#FBFBFB"/>
<path d="M793.012 433.271L751.012 395.271V641.271L793.012 612.271V433.271Z" fill="#FBFBFB"/>
</svg>
